<svg xmlns="http://www.w3.org/2000/svg" width="14" height="14" viewBox="0 0 14 14" fill="none">
  <path d="M7.11124 4.66661L7.43524 5.42443C7.4572 5.49033 7.51761 5.52877 7.57801 5.53426L8.40173 5.61114C8.57746 5.62762 8.64336 5.84179 8.51705 5.95711L7.89652 6.50076C7.8471 6.54469 7.82513 6.61059 7.8416 6.671L8.02282 7.47824C8.06126 7.64848 7.88004 7.78027 7.72628 7.69241L7.01788 7.26957C6.96297 7.23662 6.89158 7.23662 6.83667 7.26957L6.12827 7.69241C5.98 7.78027 5.79329 7.64848 5.83173 7.47824L6.01295 6.671C6.02942 6.61059 6.00746 6.54469 5.95803 6.50076L5.3375 5.95711C5.2057 5.84179 5.27709 5.62762 5.45282 5.61114L6.27654 5.53426C6.34243 5.52877 6.39735 5.49033 6.42481 5.42993L6.7488 4.6721C6.8147 4.50736 7.03985 4.50736 7.11124 4.66661Z" stroke="#F0C932" stroke-width="0.549146" stroke-miterlimit="10" stroke-linecap="round" stroke-linejoin="round"/>
  <path d="M10.6621 6.27326C10.6763 4.21092 9.0159 2.52755 6.95356 2.51336C4.89122 2.49917 3.20786 4.15952 3.19367 6.22186C3.17947 8.2842 4.83983 9.96756 6.90216 9.98175C8.9645 9.99595 10.6479 8.3356 10.6621 6.27326Z" stroke="#F0C932" stroke-width="0.549146" stroke-miterlimit="10" stroke-linecap="round" stroke-linejoin="round"/>
  <path d="M6.41994 9.94451L5.49188 12.2784L4.31671 10.933L2.54297 11.0977L3.71814 8.1543" stroke="#F0C932" stroke-width="0.549146" stroke-miterlimit="10" stroke-linecap="round" stroke-linejoin="round"/>
  <path d="M7.42969 9.94451L8.36324 12.2784L9.53292 10.933L11.3122 11.0977L10.1315 8.1543" stroke="#F0C932" stroke-width="0.549146" stroke-miterlimit="10" stroke-linecap="round" stroke-linejoin="round"/>
</svg>